<?xml version="1.0" standalone="no"?>
<!DOCTYPE svg PUBLIC "-//W3C//DTD SVG 20010904//EN"
 "http://www.w3.org/TR/2001/REC-SVG-20010904/DTD/svg10.dtd">
<svg version="1.0" xmlns="http://www.w3.org/2000/svg"
 width="1270.000000pt" height="1200.000000pt" viewBox="0 0 1270.000000 1200.000000"
 preserveAspectRatio="xMidYMid meet">
<metadata>
Created by potrace 1.16, written by Peter Selinger 2001-2019
</metadata>
<g transform="translate(0.000000,1200.000000) scale(0.100000,-0.100000)"
fill="#000000" stroke="none">
<path d="M5705 11684 c-49 -2 -241 -8 -425 -14 -1231 -40 -2231 -129 -2865
-256 -263 -52 -405 -93 -607 -177 -25 -10 -28 -16 -28 -62 0 -27 -9 -246 -20
-485 -37 -820 -63 -1651 -81 -2570 -13 -641 -6 -2316 10 -2705 32 -741 75
-1276 122 -1510 62 -306 240 -672 483 -993 589 -779 1686 -1582 3141 -2302
399 -197 948 -442 990 -442 41 0 533 218 940 416 397 193 742 380 1123 608
1532 918 2424 1879 2576 2775 28 161 68 624 91 1033 70 1274 43 3814 -65 5974
-6 109 -10 211 -10 226 0 24 -8 31 -74 58 -497 209 -1564 339 -3386 413 -243
10 -1725 20 -1915 13z m1715 -614 c1533 -52 2595 -175 3064 -356 50 -19 94
-38 98 -42 7 -7 29 -454 53 -1087 45 -1195 58 -1975 52 -3065 -5 -831 -11
-1105 -33 -1451 l-6 -107 -47 29 c-84 52 -152 62 -366 55 -104 -3 -224 -13
-265 -21 -126 -26 -369 -31 -491 -10 -103 17 -332 85 -363 108 -15 11 -11 20
33 83 127 180 257 421 320 592 74 199 97 355 79 533 l-12 118 33 88 c88 231
178 356 341 476 69 51 85 90 110 267 52 384 128 660 199 724 31 28 73 167 78
261 5 73 3 86 -24 146 -33 72 -81 133 -124 155 -38 19 -153 18 -215 -3 -87
-29 -298 -188 -449 -338 -70 -69 -90 -97 -144 -203 -34 -68 -73 -152 -86 -187
-39 -104 -58 -250 -52 -404 l5 -135 -40 -105 c-195 -519 -439 -959 -570 -1027
-28 -14 -28 -14 -56 32 -171 288 -382 564 -517 673 -92 75 -134 93 -254 108
-140 18 -269 49 -311 74 l-34 21 50 31 c131 81 273 122 403 115 47 -3 93 -8
101 -12 13 -5 18 13 28 125 23 239 62 379 120 430 l36 32 -215 -6 c-202 -5
-331 -21 -380 -48 -24 -12 -168 60 -219 111 -107 107 -92 223 46 369 76 81 66
79 178 37 37 -15 91 -30 119 -34 50 -7 51 -7 89 -77 20 -39 45 -101 55 -138
l18 -69 44 7 c52 8 91 24 91 38 0 6 13 -2 29 -17 l30 -29 57 89 c59 89 103
183 104 218 0 10 22 48 49 85 124 168 222 352 242 453 16 77 5 91 -117 155
-162 84 -320 131 -496 149 l-67 6 -30 52 c-92 162 -239 274 -435 330 -76 22
-103 37 -195 105 -236 174 -451 301 -510 301 -23 0 -20 -6 39 -65 63 -63 64
-65 30 -55 -101 30 -321 82 -440 104 -257 47 -466 53 -589 17 -39 -12 -111
-57 -111 -70 0 -4 36 -17 79 -29 145 -39 239 -81 289 -128 25 -24 43 -46 40
-49 -3 -4 -48 2 -99 12 -69 12 -146 17 -284 17 -173 0 -196 -2 -254 -22 -89
-32 -181 -99 -181 -132 0 -3 40 1 90 9 64 10 101 11 132 4 l43 -10 -85 -38
c-171 -78 -467 -232 -555 -290 -143 -94 -246 -210 -170 -191 58 15 113 18 132
7 19 -10 15 -16 -55 -88 -81 -84 -132 -155 -132 -186 0 -14 4 -17 18 -12 26
11 112 19 112 10 0 -4 -31 -46 -69 -94 -192 -240 -309 -468 -287 -556 6 -24 7
-24 49 18 49 49 119 85 183 94 l45 6 -25 -66 c-71 -188 -166 -348 -265 -446
l-64 -64 51 6 c29 3 73 15 99 27 25 11 48 18 51 15 3 -2 -20 -55 -51 -117 -69
-138 -170 -274 -262 -351 -69 -58 -211 -137 -246 -137 -10 0 -20 -4 -23 -9 -9
-14 111 -51 188 -58 59 -5 78 -12 140 -53 87 -58 133 -106 151 -156 15 -44 9
-44 135 -7 88 25 227 40 246 26 6 -4 23 -64 38 -133 76 -348 201 -580 314
-580 14 0 22 -12 31 -42 77 -269 251 -605 340 -656 26 -15 29 -23 46 -136 22
-156 65 -327 100 -401 l28 -58 -6 -361 c-6 -375 -19 -534 -57 -693 -27 -115
-48 -150 -166 -288 -313 -364 -567 -752 -678 -1041 -36 -94 -70 -217 -81 -297
-10 -72 -33 -91 -104 -84 -78 7 -155 42 -195 88 -41 49 -135 229 -171 329 -88
247 -116 529 -76 750 17 89 59 413 75 575 40 401 41 678 5 1118 -44 542 -336
1004 -791 1252 -50 28 -122 78 -161 113 -184 166 -357 243 -545 243 -191 0
-347 -82 -469 -246 l-48 -65 -3 517 c-5 883 28 2339 78 3448 5 116 13 283 16
373 8 187 1 173 115 217 506 199 1789 331 3589 369 238 5 1133 -4 1450 -14z
m-4197 -5186 c262 -133 475 -382 570 -666 65 -195 76 -359 53 -773 -40 -708
-90 -1242 -146 -1589 -33 -198 -23 -353 34 -531 13 -41 22 -75 20 -75 -9 0
-316 250 -422 344 -154 136 -406 395 -513 526 -280 344 -447 663 -518 992 -31
144 -91 780 -91 967 l0 59 47 -43 c83 -77 293 -186 293 -152 0 6 -9 66 -20
132 -20 121 -28 333 -14 390 19 79 61 125 114 125 20 0 69 11 108 24 157 54
313 156 381 250 18 25 37 46 42 46 5 0 33 -12 62 -26z m5707 -1535 c25 -5 56
-18 70 -28 21 -15 36 -17 95 -10 157 17 362 21 454 10 118 -15 187 -42 411
-163 228 -122 293 -151 360 -156 30 -2 82 -13 115 -24 33 -11 66 -22 72 -24
18 -5 -24 -118 -102 -279 -151 -309 -357 -579 -691 -905 -370 -361 -820 -699
-1399 -1050 -156 -94 -570 -330 -581 -330 -2 0 -4 15 -4 33 0 71 -40 188 -119
344 -100 200 -162 306 -243 413 l-63 84 1 105 c2 131 30 236 109 397 82 168
149 251 455 554 274 272 395 410 496 565 101 156 143 258 153 375 l6 75 85 11
c110 15 263 16 320 3z"/>
</g>
</svg>
