<?xml version="1.0" standalone="no"?>
<!DOCTYPE svg PUBLIC "-//W3C//DTD SVG 20010904//EN"
 "http://www.w3.org/TR/2001/REC-SVG-20010904/DTD/svg10.dtd">
<svg version="1.0" xmlns="http://www.w3.org/2000/svg"
 width="1270.000000pt" height="1200.000000pt" viewBox="0 0 1270.000000 1200.000000"
 preserveAspectRatio="xMidYMid meet">
<metadata>
Created by potrace 1.16, written by Peter Selinger 2001-2019
</metadata>
<g transform="translate(0.000000,1200.000000) scale(0.100000,-0.100000)"
fill="#000000" stroke="none">
<path d="M5685 11724 c-49 -2 -241 -8 -425 -14 -945 -31 -1784 -92 -2385 -176
-497 -69 -899 -164 -1076 -254 -38 -20 -39 -21 -39 -78 0 -31 -7 -196 -15
-367 -36 -766 -68 -1768 -86 -2685 -13 -657 -7 -2285 10 -2690 32 -771 81
-1343 132 -1560 180 -764 882 -1570 2054 -2355 676 -453 1503 -896 2353 -1261
97 -42 186 -76 197 -76 64 0 907 390 1355 627 1791 947 2895 1941 3213 2895
65 195 97 400 131 850 103 1334 92 3776 -29 6325 -8 171 -15 322 -15 337 0 24
-8 30 -103 67 -525 205 -1578 331 -3362 402 -248 10 -1720 20 -1910 13z m1680
-614 c1536 -49 2628 -174 3099 -356 50 -19 94 -38 98 -42 12 -13 59 -1155 90
-2207 17 -573 17 -2676 0 -3045 -34 -738 -75 -1186 -127 -1377 -69 -256 -184
-490 -365 -744 -130 -181 -336 -417 -351 -402 -4 4 -22 51 -40 103 -67 198
-35 374 132 747 39 87 91 203 116 258 60 135 127 338 152 460 91 448 7 823
-279 1244 -218 320 -368 467 -599 585 -317 162 -628 241 -1454 366 -612 93
-735 135 -971 331 -198 164 -449 472 -531 652 -90 197 44 404 358 552 163 77
460 154 717 185 52 6 109 16 126 21 46 14 189 165 204 215 8 26 11 85 9 161
-4 111 -6 122 -30 154 -20 26 -104 76 -348 209 -232 126 -326 182 -335 200 -7
14 -16 45 -19 69 -3 27 -14 53 -29 67 -13 13 -174 119 -358 236 -316 202 -336
216 -349 253 -20 56 -26 235 -11 290 18 64 6 75 -84 75 -195 -1 -355 -77 -408
-196 -22 -51 -61 -84 -97 -84 -49 0 -306 -41 -411 -66 -59 -14 -141 -42 -187
-64 l-82 -40 -78 24 c-175 55 -307 59 -411 11 -73 -34 -209 -173 -252 -258
-39 -78 -40 -159 -5 -281 14 -47 25 -93 25 -102 0 -27 -28 -71 -154 -242 -384
-522 -732 -1048 -889 -1342 -101 -189 -116 -249 -127 -512 -16 -349 -69 -533
-187 -639 -56 -51 -215 -136 -381 -204 -92 -37 -361 -125 -384 -125 -11 0 -10
1043 2 1660 14 742 40 1579 70 2240 5 118 13 291 16 383 8 192 0 178 114 222
508 199 1852 335 3635 369 244 5 1034 -4 1370 -14z m-4247 -5743 c59 -19 127
-37 151 -40 l43 -5 -27 28 c-16 17 -29 43 -32 69 l-6 41 61 0 61 0 263 -330
c195 -245 264 -339 266 -361 3 -28 -7 -42 -106 -135 -216 -204 -361 -325 -466
-388 l-60 -36 -246 0 -247 0 -64 41 c-84 54 -129 98 -129 126 0 29 105 92 277
165 68 29 123 56 123 60 0 4 -74 8 -165 8 -191 0 -174 -14 -150 126 18 102 48
163 89 183 l29 14 -26 13 c-48 26 -159 45 -256 45 -85 0 -126 -7 -223 -38 -10
-3 -18 0 -18 6 0 18 27 66 44 80 26 22 19 28 -48 51 l-64 21 -6 72 c-3 40 -8
129 -11 199 l-7 128 29 -5 c15 -3 87 -14 158 -25 171 -27 292 -56 333 -80 63
-37 63 -29 8 100 l-33 75 174 -87 c96 -47 222 -102 281 -121z m1872 -1304
c152 -295 781 -598 1725 -831 528 -131 998 -206 1400 -223 319 -13 430 -34
511 -95 42 -33 63 -79 80 -178 7 -44 19 -99 25 -122 16 -62 -14 -125 -104
-212 -87 -84 -324 -242 -363 -242 -14 0 8 88 41 165 40 93 41 100 18 110 -49
20 -478 12 -555 -11 -26 -8 -23 14 13 108 37 94 33 102 -46 94 -106 -9 -265
-96 -400 -218 -96 -88 -188 -99 -388 -48 -65 17 -178 43 -250 59 -73 16 -186
46 -252 66 -340 105 -422 122 -620 132 -212 10 -463 -22 -736 -93 l-136 -36
-149 22 c-353 50 -712 114 -824 147 -63 18 -110 61 -127 116 l-11 36 52 20
c63 25 129 40 179 41 20 0 37 3 37 8 0 18 -149 98 -311 167 -46 20 -85 38 -87
40 -2 2 6 22 18 45 30 58 137 162 271 262 l110 83 -33 8 c-47 13 -249 2 -343
-18 -117 -25 -255 -71 -383 -128 l-114 -50 -61 30 -62 30 -29 89 c-16 49 -30
94 -33 99 -6 17 66 52 155 75 169 43 599 97 915 116 117 7 146 16 85 28 -44 8
-150 59 -167 80 -22 26 4 45 80 57 64 11 161 7 342 -13 54 -5 100 -8 103 -5 3
2 -10 35 -28 72 l-33 67 30 24 c61 49 225 91 365 93 l55 1 35 -67z"/>
</g>
</svg>
