<?xml version="1.0" standalone="no"?>
<!DOCTYPE svg PUBLIC "-//W3C//DTD SVG 20010904//EN"
 "http://www.w3.org/TR/2001/REC-SVG-20010904/DTD/svg10.dtd">
<svg version="1.0" xmlns="http://www.w3.org/2000/svg"
 width="1270.000000pt" height="1200.000000pt" viewBox="0 0 1270.000000 1200.000000"
 preserveAspectRatio="xMidYMid meet">
<metadata>
Created by potrace 1.16, written by Peter Selinger 2001-2019
</metadata>
<g transform="translate(0.000000,1200.000000) scale(0.100000,-0.100000)"
fill="#000000" stroke="none">
<path d="M5705 11704 c-49 -2 -241 -8 -425 -14 -1749 -56 -3043 -217 -3460
-430 -40 -20 -40 -21 -40 -78 0 -31 -7 -196 -15 -367 -68 -1458 -100 -2885
-92 -4195 7 -1085 25 -1616 78 -2200 47 -525 88 -693 245 -1010 161 -322 382
-618 709 -945 579 -579 1376 -1130 2446 -1691 423 -222 1214 -586 1274 -586
69 0 996 433 1460 682 1623 873 2672 1795 3047 2677 95 224 133 391 167 733
67 662 93 1408 93 2645 0 1269 -32 2591 -97 3960 -8 171 -15 322 -15 337 0 24
-8 30 -103 67 -525 205 -1578 331 -3362 402 -248 10 -1720 20 -1910 13z m1690
-614 c1314 -43 2286 -139 2841 -280 136 -35 328 -100 346 -118 6 -6 17 -241
53 -1077 39 -901 58 -2066 52 -3075 -6 -980 -18 -1348 -63 -1890 -40 -497 -76
-658 -208 -935 -64 -133 -133 -250 -213 -363 l-45 -64 -127 134 c-547 573
-801 909 -715 942 9 3 38 6 66 6 100 0 351 65 453 118 34 17 34 17 -68 48 -76
22 -106 46 -88 67 7 9 35 23 62 32 27 9 58 28 69 42 26 33 26 92 0 125 -51 65
-348 211 -810 400 -107 44 -179 77 -160 74 205 -31 578 -31 720 -1 111 24 213
70 270 122 65 58 67 86 9 138 -22 20 -47 34 -54 31 -7 -2 -71 -15 -141 -27
-167 -29 -483 -32 -639 -5 -141 24 -281 61 -399 105 -99 37 -252 109 -245 115
2 2 49 15 104 29 170 43 349 129 440 211 l40 36 -55 -7 c-93 -13 -319 -7 -420
11 -306 54 -627 189 -939 396 -82 55 -152 103 -155 108 -3 5 47 12 110 16 357
20 787 139 1064 295 l65 36 -107 7 c-58 4 -152 17 -209 28 -104 21 -259 75
-259 89 0 5 28 11 63 15 273 28 775 222 1187 459 145 83 312 188 307 193 -2 3
-33 -2 -68 -11 -76 -18 -188 -19 -260 -4 l-52 11 71 38 c137 72 226 158 300
291 35 61 72 161 72 192 0 18 -4 17 -32 -12 -95 -97 -355 -225 -678 -335 -86
-30 -101 -32 -165 -25 -85 9 -124 25 -131 55 -11 43 9 55 202 119 526 175 854
385 971 622 32 65 37 86 41 164 5 99 -6 114 -32 46 -19 -50 -68 -102 -89 -94
-13 5 -13 12 0 59 16 59 13 204 -6 251 l-11 28 -33 -25 c-171 -130 -1207 -451
-1927 -596 -233 -47 -371 -67 -505 -75 -55 -4 -134 -13 -175 -22 -226 -46
-666 -211 -1198 -447 -106 -47 -195 -86 -198 -86 -2 0 -92 59 -199 130 l-195
130 0 61 c0 171 -47 410 -105 535 -94 205 -237 324 -443 370 -110 25 -351 15
-487 -19 -146 -37 -293 -91 -435 -158 -114 -55 -133 -61 -223 -69 -309 -30
-801 -191 -938 -308 -52 -44 -69 -80 -69 -142 0 -76 65 -196 94 -174 7 5 32
23 56 41 69 53 142 76 257 81 169 7 308 -27 522 -129 136 -65 320 -174 328
-195 3 -8 -14 -58 -37 -111 -54 -125 -141 -388 -174 -523 -56 -231 -70 -348
-70 -595 -1 -241 5 -295 51 -480 123 -496 485 -924 1023 -1209 115 -60 275
-130 383 -165 80 -27 79 -26 102 -166 18 -117 75 -288 152 -465 30 -69 56
-132 56 -141 1 -10 -60 -66 -155 -143 l-157 -126 -95 0 c-94 0 -96 1 -189 48
-101 52 -199 82 -270 82 -89 0 -175 -49 -213 -122 -14 -28 -15 -28 -114 -28
l-100 0 -124 -82 c-95 -64 -124 -88 -123 -103 3 -26 -25 -24 -163 16 -127 36
-269 47 -389 30 -45 -7 -217 -55 -383 -106 -166 -52 -302 -94 -303 -92 -22 31
-112 205 -142 272 -86 192 -131 367 -157 610 -126 1174 -128 3214 -4 6024 10
233 14 277 28 291 10 10 49 29 88 44 528 202 1829 335 3622 370 243 5 1064 -4
1395 -14z m37 -6805 c73 -48 152 -199 210 -400 15 -55 30 -104 32 -110 1 -5
17 19 35 54 l33 64 26 -44 c67 -115 153 -211 408 -454 24 -23 46 -54 50 -70 7
-27 -5 -136 -22 -195 -5 -19 11 -7 69 49 l76 74 27 -17 c62 -42 214 -225 362
-440 l62 -89 0 164 1 164 64 -69 c35 -37 103 -129 152 -203 l88 -134 2 73 c2
40 8 117 14 170 l11 97 62 -51 c104 -87 201 -146 264 -159 54 -11 174 -7 218
6 26 9 -116 -127 -266 -252 -126 -106 -328 -262 -474 -366 l-78 -57 -87 60
-86 60 -385 0 -385 0 -14 23 c-34 55 -187 250 -258 328 -90 100 -180 181 -453
408 l-195 162 -17 64 c-22 81 -54 151 -112 248 -46 78 -46 79 -46 171 0 91 1
93 51 192 152 296 373 528 488 510 19 -3 51 -17 73 -31z m-1146 -142 c126 -85
281 -198 317 -231 56 -52 27 -113 -131 -274 l-115 -118 -76 0 c-81 -1 -139
-16 -173 -47 -29 -25 -58 -91 -58 -133 0 -35 0 -35 -89 -67 -48 -18 -93 -33
-100 -33 -6 0 -47 18 -91 40 l-80 40 -128 0 -129 0 -6 38 c-4 20 -32 121 -63
225 -32 103 -55 189 -52 192 3 3 185 102 404 220 309 166 407 215 435 215 28
0 58 -15 135 -67z m3509 -1042 c22 -11 61 -37 87 -58 l46 -40 -111 -111 c-106
-105 -113 -110 -136 -98 -51 28 -101 130 -101 207 0 93 115 147 215 100z"/>
</g>
</svg>
