<?xml version="1.0" standalone="no"?>
<!DOCTYPE svg PUBLIC "-//W3C//DTD SVG 20010904//EN"
 "http://www.w3.org/TR/2001/REC-SVG-20010904/DTD/svg10.dtd">
<svg version="1.0" xmlns="http://www.w3.org/2000/svg"
 width="1270.000000pt" height="1200.000000pt" viewBox="0 0 1270.000000 1200.000000"
 preserveAspectRatio="xMidYMid meet">
<metadata>
Created by potrace 1.16, written by Peter Selinger 2001-2019
</metadata>
<g transform="translate(0.000000,1200.000000) scale(0.100000,-0.100000)"
fill="#000000" stroke="none">
<path d="M5605 11724 c-49 -2 -241 -8 -425 -14 -1231 -40 -2231 -129 -2865
-256 -263 -52 -405 -93 -607 -177 -25 -10 -28 -16 -28 -62 0 -27 -9 -246 -20
-485 -37 -820 -63 -1651 -81 -2570 -13 -641 -6 -2316 10 -2705 32 -740 75
-1277 122 -1508 63 -311 239 -674 485 -999 437 -576 1152 -1167 2099 -1733
569 -340 1225 -673 1870 -947 77 -33 149 -60 160 -60 51 -1 678 284 1140 517
1570 794 2682 1667 3193 2505 159 261 263 526 307 780 27 157 67 624 90 1030
70 1275 43 3812 -65 5974 -6 109 -10 211 -10 226 0 24 -8 31 -74 58 -497 209
-1564 339 -3386 413 -243 10 -1725 20 -1915 13z m1280 -604 c1579 -34 2766
-146 3340 -314 115 -34 242 -80 257 -94 12 -12 58 -1128 90 -2207 17 -572 17
-2675 0 -3045 -34 -738 -75 -1186 -127 -1377 -76 -283 -224 -567 -439 -842
l-81 -104 -7 194 c-13 390 -81 778 -215 1229 -75 253 -283 811 -565 1515 -212
531 -284 681 -548 1145 -162 284 -284 521 -316 611 -23 66 -26 85 -21 174 5
120 43 293 103 473 54 162 83 222 169 343 132 186 168 306 102 337 -99 47
-480 -156 -715 -382 -349 -335 -457 -760 -308 -1211 15 -44 115 -260 223 -480
341 -696 521 -1093 597 -1316 40 -119 56 -209 36 -209 -7 0 -74 20 -149 45
-448 150 -951 224 -1316 195 -404 -31 -696 -146 -924 -364 -128 -123 -291
-344 -371 -503 -111 -222 -137 -375 -114 -665 15 -201 33 -313 74 -472 130
-502 378 -868 711 -1045 187 -100 365 -137 623 -128 197 6 331 31 541 98 267
85 649 270 897 433 l27 18 -30 -114 c-42 -155 -89 -278 -169 -443 -224 -461
-571 -797 -997 -965 -232 -91 -460 -131 -748 -131 -413 0 -721 84 -996 273
-209 142 -359 322 -480 571 -97 202 -153 403 -179 637 -10 87 -9 135 4 280 61
645 229 1274 471 1761 100 201 182 335 342 556 736 1014 1117 1658 1240 2097
21 76 26 120 30 267 9 297 -25 690 -77 895 -52 202 -144 419 -240 563 -198
295 -483 477 -817 522 -119 16 -360 6 -488 -21 -73 -15 -119 -19 -170 -14 -87
7 -288 -10 -411 -36 -381 -79 -689 -289 -907 -615 -74 -111 -99 -140 -173
-200 -195 -158 -399 -401 -469 -559 -86 -196 -71 -365 46 -516 25 -32 28 -44
31 -132 2 -79 7 -102 24 -124 38 -52 44 -43 37 59 -6 92 -5 95 18 110 21 14
31 14 84 2 74 -18 218 -19 266 -1 l35 12 -57 -58 c-63 -64 -99 -128 -99 -176
0 -29 -2 -31 -47 -37 -151 -20 -254 -50 -338 -99 -67 -40 -73 -54 -80 -196 -3
-69 -11 -144 -17 -168 -11 -43 -15 -47 -128 -135 -140 -109 -252 -318 -226
-421 3 -14 10 -26 15 -26 4 0 25 25 45 56 50 75 179 209 217 224 38 16 43 10
58 -64 21 -110 82 -199 180 -260 53 -34 67 -33 41 3 -32 46 -50 108 -50 173 0
49 8 77 41 152 52 116 71 218 63 341 -8 105 1 131 62 185 38 33 132 80 160 80
9 0 37 -18 62 -41 184 -162 469 -173 769 -30 222 107 423 260 687 525 172 173
183 181 257 211 112 45 184 91 260 165 l67 66 6 -36 c10 -62 6 -206 -9 -322
-74 -566 -399 -1188 -939 -1803 -657 -747 -1154 -1717 -1331 -2599 -60 -296
-76 -450 -82 -768 l-6 -288 -51 43 c-91 75 -376 359 -472 469 -345 398 -545
779 -607 1158 -31 185 -66 612 -87 1055 -54 1143 -32 3099 55 4985 8 173 15
341 15 373 0 54 2 58 32 77 50 30 288 105 443 139 581 127 1532 214 2750 251
641 20 936 22 1490 10z m755 -6596 c115 -20 251 -56 350 -95 l82 -31 -63 -41
c-319 -201 -642 -345 -859 -383 -175 -30 -284 3 -361 109 -35 48 -37 88 -9
180 60 195 302 297 665 280 61 -2 148 -11 195 -19z"/>
</g>
</svg>
